<svg width="0" height="0" class="hidden">
    <symbol fill="none"
        xmlns="http://www.w3.org/2000/svg"
        viewBox="0 0 24 24"
        id="menu">

        <path
            d="M11 6.94444C11 7.74219 10.3284 8.38889 9.5 8.38889C8.67157 8.38889 8 7.74219 8 6.94444C8 6.1467 8.67157 5.5 9.5 5.5C10.3284 5.5 11 6.1467 11 6.94444Z"
            fill="black" />
        <path
            d="M11 17.0556C11 17.8533 10.3284 18.5 9.5 18.5C8.67157 18.5 8 17.8533 8 17.0556C8 16.2578 8.67157 15.6111 9.5 15.6111C10.3284 15.6111 11 16.2578 11 17.0556Z"
            fill="black" />
        <path
            d="M11 12C11 12.7977 10.3284 13.4444 9.5 13.4444C8.67157 13.4444 8 12.7977 8 12C8 11.2023 8.67157 10.5556 9.5 10.5556C10.3284 10.5556 11 11.2023 11 12Z"
            fill="black" />
        <path
            d="M16 6.94444C16 7.74219 15.3284 8.38889 14.5 8.38889C13.6716 8.38889 13 7.74219 13 6.94444C13 6.1467 13.6716 5.5 14.5 5.5C15.3284 5.5 16 6.1467 16 6.94444Z"
            fill="black" />
        <path
            d="M16 17.0556C16 17.8533 15.3284 18.5 14.5 18.5C13.6716 18.5 13 17.8533 13 17.0556C13 16.2578 13.6716 15.6111 14.5 15.6111C15.3284 15.6111 16 16.2578 16 17.0556Z"
            fill="black" />
        <path
            d="M16 12C16 12.7977 15.3284 13.4444 14.5 13.4444C13.6716 13.4444 13 12.7977 13 12C13 11.2023 13.6716 10.5556 14.5 10.5556C15.3284 10.5556 16 11.2023 16 12Z"
            fill="black" />

    </symbol>

    <symbol xmlns="http://www.w3.org/2000/svg" viewBox="0 0 24 24" id="arrow-down">
        <path
            d="M12 2.08875C12.4418 2.08875 12.8 2.44692 12.8 2.88875V19.1744L16.4745 15.4849C16.7863 15.1719 17.2929 15.1708 17.6059 15.4826C17.919 15.7944 17.92 16.3009 17.6082 16.614L12.5668 21.6758C12.4167 21.8265 12.2127 21.9113 12 21.9113C11.7873 21.9113 11.5833 21.8265 11.4332 21.6758L6.3918 16.614C6.08002 16.3009 6.08104 15.7944 6.39409 15.4826C6.70714 15.1708 7.21367 15.1719 7.52546 15.4849L11.2 19.1744V2.88875C11.2 2.44692 11.5582 2.08875 12 2.08875Z"
            fill="currentColor" />
    </symbol>

    <symbol xmlns="http://www.w3.org/2000/svg" viewBox="0 0 24 24" id="arrow-up">
        <path
            d="M12 21.9113C11.5582 21.9113 11.2 21.5531 11.2 21.1113L11.2 4.82565L7.52546 8.5151C7.21367 8.82815 6.70714 8.82917 6.39409 8.51738C6.08104 8.2056 6.08001 7.69907 6.3918 7.38601L11.4332 2.32421C11.5833 2.17348 11.7873 2.08875 12 2.08875C12.2127 2.08875 12.4167 2.17348 12.5668 2.32421L17.6082 7.38602C17.92 7.69907 17.919 8.2056 17.6059 8.51738C17.2929 8.82917 16.7863 8.82815 16.4745 8.5151L12.8 4.82565L12.8 21.1113C12.8 21.5531 12.4418 21.9113 12 21.9113Z"
            fill="currentColor" />


    </symbol>

    <symbol xmlns="http://www.w3.org/2000/svg" viewBox="0 0 24 24" id="chevron-down">
        <path
            d="M7.37183 9.87183C7.68425 9.55941 8.19078 9.55941 8.5032 9.87183L12 13.3686L15.4968 9.87183C15.8092 9.55941 16.3158 9.55941 16.6282 9.87183C16.9406 10.1842 16.9406 10.6908 16.6282 11.0032L12.5657 15.0657C12.2533 15.3781 11.7467 15.3781 11.4343 15.0657L7.37183 11.0032C7.05941 10.6908 7.05941 10.1842 7.37183 9.87183Z"
            fill="black" />

    </symbol>

    <symbol xmlns="http://www.w3.org/2000/svg" viewBox="0 0 24 24" id="chevron-up">

        <path
            d="M16.627 14.4278C16.3146 14.7402 15.8081 14.7402 15.4956 14.4278L11.9988 10.931L8.50201 14.4278C8.18959 14.7402 7.68306 14.7402 7.37064 14.4278C7.05822 14.1154 7.05822 13.6088 7.37064 13.2964L11.4331 9.23392C11.7456 8.9215 12.2521 8.9215 12.5645 9.23392L16.627 13.2964C16.9394 13.6088 16.9394 14.1154 16.627 14.4278Z"
            fill="black" />


    </symbol>

    <symbol xmlns="http://www.w3.org/2000/svg" viewBox="0 0 24 24" id="cross">

        <path
            d="M21.7636 3.36584C22.0761 3.05342 22.0761 2.54689 21.7636 2.23447C21.4512 1.92205 20.9447 1.92205 20.6323 2.23447L12 10.8667L3.3678 2.23447C3.05538 1.92205 2.54885 1.92205 2.23643 2.23447C1.92401 2.54689 1.92401 3.05342 2.23643 3.36584L10.8687 11.9981L2.23496 20.6318C1.92254 20.9442 1.92254 21.4508 2.23496 21.7632C2.54737 22.0756 3.05391 22.0756 3.36633 21.7632L12 13.1295L20.6337 21.7632C20.9462 22.0756 21.4527 22.0756 21.7651 21.7632C22.0775 21.4508 22.0775 20.9442 21.7651 20.6318L13.1314 11.9981L21.7636 3.36584Z"
            fill="black" />


    </symbol>

    <symbol xmlns="http://www.w3.org/2000/svg" viewBox="0 0 24 24" id="note-edit">

        <path fill-rule="evenodd" clip-rule="evenodd"
            d="M18.1298 2.00537C18.3419 2.00537 18.5454 2.08966 18.6954 2.23969L21.7603 5.30464C22.0727 5.61706 22.0727 6.12358 21.7603 6.436L12.5657 15.6309C12.4157 15.7809 12.2122 15.8652 12 15.8652H8.93513C8.4933 15.8652 8.13513 15.507 8.13513 15.0652V12.0002C8.13513 11.7881 8.21941 11.5846 8.36943 11.4345L14.4988 5.30498L17.5641 2.23969C17.7141 2.08966 17.9176 2.00537 18.1298 2.00537ZM15.0649 7.00171L9.73513 12.3316V14.2652H11.6686L16.9984 8.93527L15.0649 7.00171ZM18.1298 7.80389L16.1962 5.87032L18.1298 3.93676L20.0633 5.87032L18.1298 7.80389Z"
            fill="currentColor" />
        <path
            d="M6.04255 4.04867L8.93532 4.04867C9.37715 4.04867 9.73532 4.40684 9.73532 4.84867C9.73532 5.2905 9.37715 5.64867 8.93532 5.64867H6.07477C5.48942 5.64867 5.09839 5.64929 4.79768 5.67385C4.50627 5.69766 4.37089 5.73989 4.28398 5.78418C4.05025 5.90327 3.86018 6.09339 3.74088 6.32754C3.69657 6.41451 3.65435 6.54983 3.63055 6.84108C3.60599 7.14167 3.60537 7.53259 3.60537 8.11797V17.9258C3.60537 18.5112 3.60599 18.9021 3.63055 19.2027C3.65435 19.4939 3.69657 19.6292 3.74088 19.7162C3.86017 19.9503 4.05022 20.1404 4.28398 20.2595C4.37091 20.3038 4.50629 20.3461 4.7977 20.3699C5.0984 20.3944 5.48943 20.3951 6.07477 20.3951H15.8824C16.4677 20.3951 16.8585 20.3944 17.159 20.3699C17.4501 20.3461 17.5853 20.3039 17.6723 20.2595C17.9066 20.1402 18.0971 19.9498 18.2161 19.7162C18.2604 19.6293 18.3025 19.4941 18.3263 19.2028C18.3508 18.9022 18.3514 18.5113 18.3514 17.9258V15.0652C18.3514 14.6233 18.7096 14.2652 19.1514 14.2652C19.5932 14.2652 19.9514 14.6233 19.9514 15.0652V17.9608C19.9514 18.5043 19.9514 18.96 19.921 19.3328C19.8892 19.723 19.8201 20.0924 19.6417 20.4426C19.3689 20.978 18.9334 21.4127 18.3987 21.6851C18.0487 21.8635 17.6795 21.9327 17.2894 21.9646C16.9158 21.9951 16.4591 21.9951 15.9142 21.9951H6.04303C5.49807 21.9951 5.04113 21.9951 4.66741 21.9646C4.27717 21.9327 3.90773 21.8636 3.55758 21.6851C3.02241 21.4125 2.58777 20.9774 2.31526 20.4426C2.13688 20.0925 2.06775 19.7232 2.03587 19.333C2.00535 18.9595 2.00536 18.5028 2.00537 17.9581V8.08573C2.00536 7.54099 2.00535 7.0843 2.03587 6.71079C2.06775 6.3206 2.13688 5.95129 2.31526 5.60117C2.58775 5.06638 3.02238 4.63128 3.55758 4.35858C3.90774 4.18016 4.2772 4.11104 4.66743 4.07917C5.04103 4.04865 5.49781 4.04866 6.04255 4.04867Z"
            fill="currentColor" />

    </symbol>

    <symbol xmlns="http://www.w3.org/2000/svg" viewBox="0 0 24 24" id="recycle-bin">

        <path fill-rule="evenodd" clip-rule="evenodd"
            d="M10.9487 2.00107H13.0518C13.5067 2.00106 13.8878 2.00105 14.201 2.02237C14.5275 2.04458 14.838 2.09258 15.1399 2.21728C15.8379 2.50561 16.3929 3.05892 16.6825 3.75612C16.8078 4.05783 16.8561 4.36823 16.8784 4.6942C16.8863 4.80932 16.8913 4.93362 16.8944 5.06738H20.1994C20.6412 5.06738 20.9994 5.42555 20.9994 5.86738C20.9994 6.30921 20.6412 6.66738 20.1994 6.66738H18.9496V17.9633C18.9496 18.5069 18.9496 18.963 18.9191 19.3361C18.8872 19.7265 18.8179 20.0963 18.6388 20.4468C18.3651 20.9826 17.9283 21.4171 17.3926 21.6893C17.0421 21.8674 16.6723 21.9365 16.2813 21.9684C15.9068 21.999 15.4487 21.999 14.902 21.9989H9.09898C8.55217 21.999 8.09395 21.999 7.71925 21.9684C7.3281 21.9366 6.95809 21.8675 6.60743 21.6893C6.07127 21.4169 5.63533 20.982 5.36187 20.4468C5.18284 20.0964 5.11345 19.7267 5.08146 19.3362C5.05084 18.9624 5.05085 18.5054 5.05086 17.9605L5.05086 6.66738H3.80107C3.35924 6.66738 3.00107 6.30921 3.00107 5.86738C3.00107 5.42555 3.35924 5.06738 3.80107 5.06738H7.10604C7.10918 4.93365 7.11415 4.80937 7.12203 4.69427C7.14432 4.36832 7.19254 4.05789 7.31788 3.75612C7.60741 3.05904 8.16222 2.50565 8.86033 2.21728C9.16222 2.09257 9.47288 2.04457 9.79936 2.02236C10.1126 2.00105 10.4938 2.00106 10.9487 2.00107ZM8.70648 5.06738H15.294C15.2914 4.97017 15.2876 4.88316 15.2821 4.80355C15.2654 4.55936 15.2356 4.44379 15.2049 4.36984C15.0784 4.06525 14.8355 3.82269 14.529 3.69607C14.4542 3.66516 14.3376 3.63536 14.0924 3.61867C13.84 3.6015 13.5136 3.60107 13.0251 3.60107H10.9753C10.4869 3.60107 10.1604 3.6015 9.90795 3.61867C9.66259 3.63537 9.546 3.66517 9.4712 3.69607C9.16479 3.82265 8.92205 4.06514 8.79549 4.36984C8.7648 4.44373 8.735 4.55926 8.71829 4.80348C8.71285 4.88311 8.70908 4.97014 8.70648 5.06738ZM6.65086 6.66738V17.9282C6.65086 18.5139 6.65149 18.9049 6.67612 19.2055C6.69998 19.4968 6.7423 19.632 6.78668 19.7189C6.90626 19.9529 7.09703 20.1434 7.33225 20.2629C7.42007 20.3075 7.55651 20.3499 7.84918 20.3737C8.15108 20.3983 8.54359 20.3989 9.13073 20.3989H14.8702C15.4573 20.3989 15.8496 20.3983 16.1512 20.3737C16.4436 20.3499 16.5799 20.3076 16.6678 20.2629C16.9036 20.1431 17.0947 19.9524 17.214 19.7189C17.2584 19.6321 17.3006 19.497 17.3245 19.2057C17.3491 18.905 17.3496 18.514 17.3496 17.9282V6.66738H6.65086Z"
            fill="currentColor" />


    </symbol>


</svg>